<?xml version="1.0" encoding="utf-8"?>
<!-- Generator: Adobe Illustrator 25.2.0, SVG Export Plug-In . SVG Version: 6.00 Build 0)  -->
<svg version="1.1" id="Layer_1" xmlns="http://www.w3.org/2000/svg" xmlns:xlink="http://www.w3.org/1999/xlink" x="0px" y="0px"
	 viewBox="0 0 85 85" style="enable-background:new 0 0 85 85;" xml:space="preserve">
<style type="text/css">
	.st0{fill:#261C30;}
	.st1{fill:#7CAFD1;}
	.st2{fill:#745B90;}
</style>
<g id="Dot_Pattern_Vector_Pack_15">
</g>
<path class="st0" d="M46.1,21.2c1.8,0,3.6,0.4,5.2,1c-2.5-4.2-7-7.1-12.3-7.1c-7.8,0-14.2,6.3-14.2,14.2v14.2h9.6
	c-1.6-2.3-2.5-5.1-2.5-8.1C31.9,27.6,38.2,21.2,46.1,21.2z"/>
<path class="st1" d="M51.2,22.2c1.2,2.1,1.9,4.5,1.9,7.1c0,7.8-6.3,14.2-14.2,14.2h-4.5c2.6,3.7,6.8,6.1,11.6,6.1h14.2V35.4
	C60.2,29.4,56.5,24.3,51.2,22.2z"/>
<path class="st2" d="M53.2,29.3c0-2.6-0.7-5-1.9-7.1c-1.6-0.6-3.3-1-5.2-1c-7.8,0-14.2,6.3-14.2,14.2c0,3,0.9,5.8,2.5,8.1H39
	C46.8,43.5,53.2,37.1,53.2,29.3z"/>
<path class="st0" d="M30.5,66.8c-0.6,0-1.3-0.1-1.8-0.4c-0.6-0.2-1.1-0.6-1.5-1c-0.4-0.4-0.8-0.9-1-1.5c-0.2-0.6-0.4-1.2-0.4-1.8
	c0-0.7,0.1-1.3,0.4-1.8c0.2-0.6,0.6-1.1,1-1.5c0.4-0.4,0.9-0.8,1.5-1c1.3-0.5,2.8-0.5,4,0.2c0.6,0.3,1.2,0.8,1.6,1.4l0.2,0.3
	l-0.8,0.6l-0.2-0.3c-0.3-0.5-0.8-0.8-1.3-1.1c-1-0.5-2.2-0.5-3.2-0.1c-0.5,0.2-0.9,0.5-1.2,0.8c-0.3,0.3-0.6,0.7-0.8,1.2
	c-0.2,0.5-0.3,0.9-0.3,1.5c0,0.5,0.1,1,0.3,1.5c0.2,0.5,0.5,0.9,0.8,1.2c0.3,0.3,0.7,0.6,1.2,0.8c1,0.5,2.3,0.4,3.3-0.2
	c0.6-0.3,1-0.8,1.3-1.3l0.2-0.3l0.8,0.5l-0.2,0.3c-0.2,0.3-0.4,0.7-0.7,0.9c-0.3,0.3-0.6,0.5-0.9,0.7c-0.3,0.2-0.7,0.4-1.1,0.5
	C31.3,66.8,30.9,66.8,30.5,66.8z M43.5,66.7h-1.1l-1.6-3h-4.4l-1.6,3h-1.1l4.9-9.3L43.5,66.7z M40.4,62.7l-1.7-3.2l-1.7,3.2H40.4z
	 M44.7,57.5h-1v9.2h1V57.5z M49.6,58.5h3.6v-1h-8.1v1h3.6v8.2h1V58.5z M58.4,66.5c0.6-0.2,1.1-0.6,1.5-1c0.4-0.4,0.8-0.9,1-1.5
	c0.2-0.6,0.4-1.2,0.4-1.8c0-0.6-0.1-1.3-0.4-1.8c-0.2-0.6-0.6-1.1-1-1.5c-0.4-0.4-0.9-0.8-1.5-1c-1.1-0.5-2.5-0.5-3.7,0
	c-0.6,0.2-1.1,0.6-1.5,1c-0.4,0.4-0.8,0.9-1,1.5c-0.2,0.6-0.4,1.2-0.4,1.8c0,0.7,0.1,1.3,0.4,1.8c0.2,0.6,0.6,1.1,1,1.5
	c0.4,0.4,0.9,0.8,1.5,1c0.6,0.2,1.2,0.4,1.8,0.4S57.8,66.7,58.4,66.5z M58,58.7c0.5,0.2,0.9,0.5,1.2,0.8c0.3,0.3,0.6,0.7,0.8,1.2
	c0.2,0.5,0.3,0.9,0.3,1.5c0,0.5-0.1,1-0.3,1.5c-0.2,0.5-0.5,0.9-0.8,1.2c-0.3,0.3-0.7,0.6-1.2,0.8c-0.9,0.4-2,0.4-2.9,0
	c-0.5-0.2-0.9-0.5-1.2-0.8c-0.3-0.3-0.6-0.7-0.8-1.2c-0.2-0.5-0.3-0.9-0.3-1.5c0-0.5,0.1-1,0.3-1.5c0.2-0.5,0.5-0.9,0.8-1.2
	c0.3-0.3,0.7-0.6,1.2-0.8c0.5-0.2,0.9-0.3,1.5-0.3S57.6,58.5,58,58.7z"/>
</svg>
