<?xml version="1.0" encoding="utf-8"?>
<!-- Generator: Adobe Illustrator 25.2.0, SVG Export Plug-In . SVG Version: 6.00 Build 0)  -->
<svg version="1.1" id="Layer_1" xmlns="http://www.w3.org/2000/svg" xmlns:xlink="http://www.w3.org/1999/xlink" x="0px" y="0px"
	 viewBox="0 0 1440 397" style="enable-background:new 0 0 1440 397;" xml:space="preserve">
<style type="text/css">
	.st0{opacity:0.23;fill:#323547;enable-background:new    ;}
</style>
<path class="st0" d="M479.2,127.6C468.9,111.3,456,99,439.3,89.5s-34.8-13.6-54.1-13.6s-37.4,4-54.1,13.5c-16.8,9.5-30.9,21.7-40,38
	c-10.3,16.3-15.5,32.6-15.5,51.6c0,17.7,5.1,35.4,15.4,50.3c10.3,16.3,23.2,28.6,39.9,36.7c2.6,1.4,3.9,2.7,6.4,2.7V300
	c0,4.1,3.9,6.8,12.9,6.8l74.7,0.1c3.9,0,7.7,0,9-1.4c2.6-1.4,3.9-2.7,3.9-5.4v-32.6c1.3,0,2.6-1.4,3.9-1.4
	c16.8-9.5,30.9-21.7,40-36.7c10.3-16.3,14.2-32.6,14.2-50.3C493.4,160.2,488.2,143.9,479.2,127.6z"/>
<path class="st0" d="M431.4,316.5l-91.5-0.1c-2.6,0-3.9,2.7-3.9,4.1v16.3c0,2.7,2.6,4.1,3.9,4.1l91.5,0.1c2.6,0,3.9-2.7,3.9-4.1
	v-16.3C435.2,317.8,433.9,316.5,431.4,316.5z"/>
<path class="st0" d="M423.6,349.1l-74.7-0.1c-2.6,0-3.9,2.7-3.9,4.1v8.2c0,2.7,2.6,4.1,3.9,4.1l74.7,0.1c2.6,0,3.9-2.7,3.9-4.1v-8.2
	C427.5,351.8,424.9,349.1,423.6,349.1z"/>
<path class="st0" d="M438.1,66.3L438.1,66.3c-3.9-1.4-5.1-5.4-3.9-8.2l9-24.5c1.3-2.7,5.2-5.4,9-4.1l0,0c3.9,1.4,5.1,5.4,3.9,8.2
	l-9,24.5C444.5,65,440.6,67.7,438.1,66.3z"/>
<path class="st0" d="M400.7,58.1L400.7,58.1c-3.9,0-6.4-1.4-7.7-5.4l-6.4-28.6c-1.3-2.7,1.3-6.8,5.2-6.8l0,0c3.9,0,6.4,1.4,7.7,5.4
	l5.1,28.6C405.9,54.1,403.3,58.1,400.7,58.1z"/>
<path class="st0" d="M466.4,82.7L466.4,82.7c2.6,2.7,6.4,2.7,9,1.4l23.2-19c2.6-2.7,2.6-5.4,0-8.2l0,0c-2.6-2.7-6.4-2.7-9-1.4
	l-23.2,17.7C465.1,75.9,465.1,80,466.4,82.7z"/>
</svg>
