<?xml version="1.0" encoding="utf-8"?>
<!-- Generator: Adobe Illustrator 25.2.0, SVG Export Plug-In . SVG Version: 6.00 Build 0)  -->
<svg version="1.1" id="Layer_1" xmlns="http://www.w3.org/2000/svg" xmlns:xlink="http://www.w3.org/1999/xlink" x="0px" y="0px"
	 viewBox="0 0 1440 397" style="enable-background:new 0 0 1440 397;" xml:space="preserve">
<style type="text/css">
	.st0{opacity:0.36;}
	.st1{fill:#88AFCF;}
	.st2{opacity:0.16;}
	.st3{opacity:0.35;}
	.st4{fill:#745C93;}
</style>
<g class="st0">
	<path class="st1" d="M753,139.5c16-0.1,32.1-0.5,48.1-1.1c16-0.6,32-1.7,48-3c4-0.4,8-0.7,12-1.1l11.9-1.3c7.9-1,15.9-1.9,23.8-3.1
		c15.8-2.3,31.6-5.1,47.2-8.5c15.6-3.4,31.2-7.3,46.5-11.9c15.3-4.6,29.9-10.9,44.4-17.7c14.5-6.8,28.9-14,43.8-20.1
		c7.4-3.1,15.1-5.8,22.8-8.2c7.7-2.3,15.7-4.1,23.7-5.3c16-2.6,32.2-3.1,48.3-2.1c16.1,1,32,3.6,47.7,7c15.7,3.4,31.2,7.7,46.6,12.3
		l46.1,13.9c30.8,9,61.6,18,92.5,26.3c7.7,2.1,15.5,4.1,23.3,6c3.9,1,7.8,1.9,11.7,2.8l5.8,1.4l5.9,1.3c15.6,3.5,31.3,6.7,47.1,9.4
		c31.6,5.3,63.5,8.4,95.5,10.1c16,0.9,32,1.3,48,1.4c16,0.1,32,0,48-0.4c16-0.4,32-1,48-1.9c16-0.8,32-1.7,47.9-3.1
		c15.9-1.3,31.8-3,47.6-5.5c7.9-1.2,15.7-2.7,23.5-4.3c3.9-0.9,7.8-1.7,11.6-2.7l5.8-1.5l5.7-1.6l2.9-0.8l2.8-0.9l5.7-1.8l5.6-2
		l2.8-1l2.8-1.1l5.6-2.2l5.5-2.4l2.7-1.2l2.7-1.3l5.4-2.6c14-7.4,27.4-16.2,38.8-27.1l2.2-2c0.7-0.7,1.4-1.4,2.1-2.1l4.1-4.3l1-1.1
		c0.3-0.4,0.6-0.8,1-1.1l1.9-2.3l1.9-2.3l0.9-1.1c0.3-0.4,0.6-0.8,0.9-1.2c2.3-3.2,4.7-6.3,6.8-9.8l1.6-2.5c0.5-0.8,1.1-1.7,1.5-2.5
		l2.9-5.2c1-1.7,1.9-3.5,2.9-5.3c0.5-0.9,1-1.8,1.5-2.7c0.5-0.9,1-1.8,1.6-2.6c2.2-3.5,4.6-6.8,7.2-9.9c5.2-6.3,11.6-11.7,18.6-15.9
		c7-4.2,14.9-7.1,22.9-8.7c8-1.6,16.2-1.8,24.3-1.1c8.1,0.7,16.1,2.4,23.8,4.7l23.1,6.7l92.3,27l-0.1,0.4l-92.8-25.5L2096,6
		c-7.7-2.2-15.5-3.7-23.4-4.3c-7.9-0.6-15.8-0.3-23.5,1.4c-7.7,1.6-15.1,4.4-21.8,8.5c-6.7,4.1-12.7,9.3-17.7,15.4
		c-2.5,3-4.8,6.2-6.9,9.6c-0.5,0.8-1,1.7-1.5,2.5c-0.5,0.9-1,1.7-1.5,2.6c-0.9,1.7-1.8,3.5-2.8,5.3l-2.9,5.4c-0.5,0.9-1,1.7-1.6,2.6
		l-1.6,2.6c-2.1,3.5-4.5,6.7-6.9,10.1c-0.3,0.4-0.6,0.8-0.9,1.2l-1,1.2l-1.9,2.4l-1.9,2.4c-0.3,0.4-0.6,0.8-1,1.2l-1,1.1l-4.1,4.5
		c-0.7,0.8-1.4,1.5-2.1,2.2l-2.2,2.1c-11.7,11.3-25.3,20.4-39.6,28l-5.4,2.7l-2.7,1.3l-2.8,1.2l-5.6,2.4l-5.6,2.2l-2.8,1.1l-2.9,1
		l-5.7,2l-5.8,1.8l-2.9,0.9l-2.9,0.8l-5.8,1.7l-5.9,1.5c-3.9,1-7.9,1.8-11.8,2.7c-7.9,1.6-15.8,3.2-23.8,4.4
		c-15.9,2.5-31.9,4.2-47.9,5.5c-16,1.3-32.1,2.1-48.1,2.9c-16,0.8-32.1,1.3-48.1,1.7c-32.1,0.7-64.2,0.3-96.3-1.6
		c-16-1-32-2.3-48-4.2c-16-1.8-31.9-4.1-47.7-7c-15.8-2.8-31.5-6.2-47.1-9.9l-5.9-1.4l-5.8-1.4c-3.9-1-7.8-1.9-11.7-2.9
		c-7.8-2-15.5-4-23.3-6.1c-15.5-4.2-30.9-8.6-46.3-13l-46.2-13.3c-15.4-4.5-30.7-9.2-46.1-13.6c-15.4-4.4-30.9-8.5-46.6-11.7
		c-15.7-3.2-31.5-5.6-47.4-6.4c-15.9-0.8-31.9-0.1-47.6,2.6c-7.9,1.3-15.6,3-23.2,5.3c-7.6,2.4-15.1,5-22.4,8.1
		c-7.4,3-14.7,6.3-21.9,9.8L1036.3,95c-14.5,6.8-29.4,13.1-44.9,17.7c-15.4,4.6-31,8.4-46.8,11.7c-15.7,3.4-31.6,5.9-47.5,8.1
		c-8,1.1-15.9,2-23.9,2.8l-12,1.1c-4,0.4-8,0.6-12,1c-16,1.2-32,2-48.1,2.3c-16,0.4-32.1,0.4-48.1,0.1L753,139.5z"/>
</g>
<g class="st2">
	<path class="st1" d="M-656.8,107c64.3,20.3,127.9,42.8,190.3,68.5c31.2,12.9,62.1,26.5,92.5,41c30.5,14.5,60.4,30.1,89.9,46.5
		c14.8,8.2,29.1,17,44.1,24.7c7.5,3.8,15,7.5,22.9,10.5c7.8,3,15.8,5.6,24,7.3c16.4,3.4,33.5,3.6,49.9,0.2
		c16.5-3.4,32.1-10.1,46.7-18.4c14.6-8.3,28.3-18.2,41.4-28.7c13.2-10.5,25.8-21.7,38.5-32.7c12.7-11.1,25.6-22,39-32.2
		c13.3-10.3,26.9-20.4,40.7-30.1c13.8-9.7,28-18.9,42.6-27.3c14.6-8.4,29.7-16.1,45.4-22.4l5.9-2.4l6-2.2c4-1.5,8-2.7,12.1-4
		c2-0.6,4.1-1.2,6.1-1.7c2-0.5,4.1-1.2,6.1-1.6c4.1-1,8.2-2,12.4-2.7c8.3-1.7,16.8-2.6,25.2-3.2l6.4-0.3l3.2-0.1l3.2,0l6.4,0.1
		c2.1,0.1,4.2,0.2,6.4,0.4c4.2,0.2,8.5,0.8,12.7,1.2l1.6,0.2l1.6,0.3l3.1,0.5c2.1,0.4,4.2,0.7,6.3,1.1c8.3,1.8,16.6,3.8,24.6,6.5
		l6,2l5.9,2.3l3,1.2c1,0.4,2,0.8,2.9,1.2l5.8,2.6l5.8,2.6l2.9,1.3l2.8,1.4l11.3,5.8c14.9,8.1,29.3,16.9,43.4,26.3
		c14,9.5,27.7,19.3,41.2,29.4c27,20.2,53.6,41,81.2,60.2l5.2,3.6l5.3,3.5c3.5,2.3,7,4.7,10.5,6.9l10.7,6.6l2.7,1.7l2.7,1.6l5.5,3.1
		l5.5,3.1c1.8,1,3.7,2,5.6,3c3.7,1.9,7.4,3.9,11.2,5.8l11.4,5.4c1,0.4,1.9,0.9,2.9,1.3l2.9,1.2l5.8,2.5
		c15.5,6.5,31.3,12.3,47.6,16.6c2,0.5,4,1.2,6.1,1.7l6.1,1.4c4.1,0.9,8.2,2,12.3,2.7c4.1,0.7,8.3,1.5,12.4,2.2l12.5,1.6
		c16.7,1.8,33.6,2.5,50.4,1.8c16.8-0.9,33.5-3.1,50.1-6.4l0.1,0.3c-16.5,3.6-33.2,6-50.1,7.1c-16.9,0.9-33.8,0.5-50.6-1.2l-12.6-1.5
		c-4.2-0.7-8.3-1.4-12.5-2.1c-4.2-0.6-8.3-1.7-12.4-2.6l-6.2-1.4c-2.1-0.4-4.1-1.1-6.1-1.6c-16.4-4.2-32.4-9.8-48-16.3l-5.8-2.5
		l-2.9-1.2c-1-0.4-1.9-0.9-2.9-1.3l-11.5-5.4c-3.8-1.9-7.5-3.9-11.3-5.8c-1.9-1-3.8-1.9-5.6-2.9l-5.5-3.1l-5.5-3.1l-2.8-1.6
		l-2.7-1.6l-10.8-6.6c-3.6-2.2-7.1-4.6-10.6-6.9l-5.3-3.5l-5.2-3.6c-14-9.5-27.5-19.6-41-29.7c-13.5-10.1-26.9-20.4-40.4-30.4
		c-13.5-10.1-27.2-19.9-41.1-29.3l-10.6-6.9c-1.7-1.2-3.5-2.3-5.3-3.4l-5.4-3.3l-5.4-3.3c-1.8-1.1-3.6-2.1-5.5-3.1
		c-3.7-2.1-7.3-4.2-11-6.2l-11.2-5.7l-2.8-1.4l-2.9-1.3l-5.7-2.6l-5.7-2.6c-0.9-0.5-1.9-0.8-2.9-1.2l-2.9-1.2l-5.8-2.3l-5.9-2
		c-7.9-2.7-16-4.8-24.2-6.5c-2-0.4-4.1-0.7-6.2-1.1l-3.1-0.5l-1.5-0.3l-1.6-0.2c-4.2-0.5-8.3-1.1-12.5-1.2c-2.1-0.1-4.2-0.3-6.3-0.4
		l-6.3-0.1l-3.1,0l-3.1,0.1l-6.3,0.2c-8.3,0.6-16.7,1.5-24.9,3.1c-4.1,0.7-8.2,1.7-12.3,2.6c-2.1,0.4-4.1,1-6.1,1.6
		c-2,0.6-4.1,1.1-6.1,1.7c-4,1.3-8,2.4-12,3.9l-5.9,2.1l-5.9,2.3c-15.6,6.2-30.7,13.7-45.3,22c-14.6,8.3-28.8,17.4-42.7,26.9
		c-13.9,9.6-27.4,19.5-40.8,29.8c-6.7,5.1-13.4,10.2-19.9,15.6c-6.5,5.4-12.9,10.8-19.3,16.3c-12.8,11-25.5,22.1-38.7,32.6
		C-67.7,270-81.3,280-96,288.4c-14.6,8.4-30.4,15.2-47,18.7c-16.6,3.6-33.9,3.5-50.5,0.2c-8.3-1.7-16.4-4.2-24.4-7.2
		c-7.9-3-15.6-6.6-23.1-10.4c-15.1-7.7-29.5-16.4-44.3-24.4c-29.4-16.4-59.4-31.7-89.8-46.3c-30.4-14.6-61.1-28.3-92.3-41.3
		c-62.2-26-125.6-49-189.5-70.4L-656.8,107z"/>
</g>
<g class="st3">
	<path class="st4" d="M954.6,7.9c46.3,13.1,92.2,27.7,137.4,44.4c22.6,8.4,44.9,17.3,67.1,26.8c22.1,9.5,43.9,19.8,65.4,30.6
		c10.8,5.4,21.3,11.3,32.1,16.4c10.8,5.2,22,9.5,33.7,11.9c5.9,1.2,11.8,1.8,17.8,2c3-0.1,6,0,8.9-0.3c1.5-0.1,3-0.3,4.5-0.4
		c0.7-0.1,1.5-0.2,2.2-0.3l2.2-0.4c11.8-2,23.2-6.2,33.9-11.5c10.7-5.4,20.9-11.9,30.6-18.9c9.7-7,19.1-14.5,28.6-22
		c9.4-7.4,19-14.8,28.9-21.6c9.8-6.9,19.8-13.7,30-20.1c10.2-6.5,20.6-12.6,31.3-18.1c5.3-2.8,10.8-5.4,16.3-7.9
		c5.5-2.4,11.1-4.8,16.8-6.8c5.7-2.1,11.5-3.9,17.3-5.5l4.4-1.1l2.2-0.6l2.2-0.5l4.4-0.9c1.5-0.3,3-0.5,4.5-0.8
		c11.9-2.1,24.1-2.7,36.3-2c3,0.1,6,0.5,9.1,0.8c1.5,0.1,3,0.4,4.5,0.6c1.5,0.2,3,0.4,4.5,0.7c6,1.1,11.9,2.4,17.7,4.2l4.4,1.3
		l4.3,1.5c1.4,0.5,2.9,1,4.3,1.5l4.2,1.7l4.2,1.7l2.1,0.9l2.1,0.9l8.2,3.8c10.9,5.3,21.5,11.1,31.8,17.4
		c10.3,6.3,20.4,12.9,30.4,19.6l29.8,20.4l7.5,5c2.5,1.7,5,3.4,7.5,5l7.5,4.9l7.6,4.8c2.5,1.6,5.1,3.1,7.7,4.7
		c2.6,1.5,5.1,3.1,7.7,4.6l7.8,4.4l8,4.2c2.6,1.4,5.4,2.7,8.1,4c2.7,1.3,5.4,2.6,8.2,3.8l8.2,3.6l8.4,3.3c2.8,1.1,5.6,2,8.5,3
		c2.8,1,5.7,2,8.5,2.8c2.9,0.9,5.7,1.8,8.6,2.6l8.7,2.2c11.7,2.8,23.5,4.9,35.4,6.1c11.9,1.1,23.9,1.5,35.9,1.1
		c12-0.6,23.9-2,35.8-4.1l0.1,0.3c-11.8,2.3-23.8,4-35.8,4.8c-12,0.6-24.1,0.4-36.1-0.6c-12-1.1-23.9-3.1-35.7-5.7l-8.8-2.2
		c-2.9-0.8-5.8-1.7-8.7-2.5c-2.9-0.8-5.8-1.8-8.6-2.7c-2.9-1-5.7-1.9-8.5-3l-8.5-3.2l-8.3-3.5c-2.8-1.1-5.5-2.5-8.2-3.7
		c-2.7-1.3-5.5-2.5-8.2-3.9l-8.1-4.1l-7.9-4.4c-2.7-1.4-5.2-3-7.8-4.5c-2.6-1.5-5.2-3-7.8-4.7c-20.6-12.6-40.2-26.6-60.1-40.1
		c-10-6.7-20-13.3-30.3-19.5c-10.2-6.2-20.8-12-31.5-17.3l-8.1-3.8l-2-0.9l-2.1-0.9l-4.1-1.7L1661,14c-1.4-0.6-2.8-1-4.2-1.5
		l-4.2-1.5l-4.3-1.3c-5.7-1.8-11.5-3.1-17.4-4.2c-1.5-0.3-2.9-0.5-4.4-0.7c-1.5-0.2-2.9-0.5-4.4-0.6c-3-0.3-5.9-0.7-8.9-0.8
		l-4.5-0.3l-4.5-0.1c-3-0.1-6,0.1-8.9,0.2c-1.5,0-3,0.2-4.5,0.3c-1.5,0.1-3,0.2-4.5,0.4c-3,0.4-5.9,0.7-8.9,1.2
		c-1.5,0.2-2.9,0.5-4.4,0.7l-4.4,0.9l-2.2,0.4l-2.2,0.5l-4.4,1.1c-5.8,1.6-11.5,3.3-17.1,5.3c-5.7,1.9-11.2,4.2-16.7,6.6
		c-5.5,2.4-10.9,5-16.2,7.7c-10.7,5.4-21.1,11.4-31.3,17.7c-10.2,6.3-20.2,13-30.1,19.8c-5,3.4-9.9,6.8-14.7,10.4
		c-4.8,3.6-9.6,7.3-14.3,11c-9.5,7.4-18.9,14.9-28.7,21.9c-9.8,7-19.9,13.6-30.7,19.1c-10.7,5.5-22.2,9.7-34.1,11.8l-2.2,0.4
		c-0.7,0.1-1.5,0.2-2.2,0.3c-1.5,0.2-3,0.4-4.5,0.5c-3,0.3-6,0.3-9.1,0.4c-6.1-0.1-12.1-0.7-18.1-1.8c-11.9-2.3-23.3-6.6-34.3-11.7
		c-11-5.1-21.6-10.8-32.3-16.1c-21.5-10.8-43.3-20.8-65.3-30.4c-22-9.6-44.3-18.6-66.8-27.1c-45-17.1-90.6-32.2-136.6-46.3
		L954.6,7.9z"/>
</g>
</svg>
