<?xml version="1.0" encoding="utf-8"?>
<!-- Generator: Adobe Illustrator 25.2.0, SVG Export Plug-In . SVG Version: 6.00 Build 0)  -->
<svg version="1.1" id="Layer_1" xmlns="http://www.w3.org/2000/svg" xmlns:xlink="http://www.w3.org/1999/xlink" x="0px" y="0px"
	 viewBox="0 0 805 354" style="enable-background:new 0 0 805 354;" xml:space="preserve">
<style type="text/css">
	.st0{fill:#FFFFFF;}
</style>
<g>
	<path class="st0" d="M144,161.1c7.9,4.5,14,10.7,18.3,18.4s6.4,16.1,6.2,25.3c-0.1,3.1-1.2,5.5-3.3,7.2s-4.6,2.6-7.5,2.6H91.4
		c2.1,5.6,5.6,10.1,10.6,13.7c4.9,3.5,10.5,5.3,16.8,5.3c6.7,0,13.9-2.5,21.5-7.5c0.9-0.4,1.6-0.7,2.2-0.7c0.9,0,1.6,0.4,2.3,1.3
		l4.1,5.4c1.9,2.3,3.4,4.3,4.6,5.9c0.5,0.7,0.7,1.5,0.7,2.2c0,0.9-0.4,1.6-1.2,2.3c-10.4,8.4-22,12.6-34.6,12.6
		c-9.9,0-19-2.3-27.3-6.8s-14.9-10.7-19.7-18.4c-4.9-7.7-7.3-16.1-7.3-25.3s2.4-17.7,7.1-25.3c4.7-7.7,11.2-13.8,19.3-18.3
		c8.2-4.5,17.2-6.7,27.1-6.7C127.3,154.3,136.1,156.6,144,161.1z M100.1,182.8c-4.9,3.5-8.1,8.1-9.6,13.8h51.7
		c-1.4-5.7-4.3-10.3-8.6-13.8c-4.4-3.5-9.8-5.2-16.2-5.2C110.8,177.5,105,179.3,100.1,182.8z"/>
	<path class="st0" d="M266.2,159.3c6.1,3.5,10.9,8.5,14.1,15c3.3,6.5,4.9,14.1,4.9,22.8v51.8c0,0.9-0.3,1.7-0.9,2.2
		s-1.4,0.8-2.5,0.8h-18.7c-1.1,0-1.9-0.3-2.5-0.8s-0.9-1.3-0.9-2.2V197c0-3.7-1-7.1-3-10.3c-2-3.1-4.7-5.5-8.1-7.3
		c-3.4-1.8-7.1-2.6-11-2.6c-4.2,0-8.1,0.9-11.7,2.8c-3.6,1.9-6.4,4.5-8.5,7.8s-3.2,7-3.2,11.1V249c0,2.1-1.1,3.2-3.3,3.2h-18.7
		c-2.2,0-3.3-1.1-3.3-3.2v-88.9c0-0.9,0.3-1.7,0.9-2.2c0.6-0.5,1.4-0.8,2.5-0.8h14.8c1.9,0,3,0.7,3.3,2l2,9.9
		c3.7-4.6,8.4-8.2,14-10.9s11.5-3.9,17.9-3.9C252.8,154.1,260,155.8,266.2,159.3z"/>
	<path class="st0" d="M337,94.6v154.6c0,2-1.1,3-3.3,3h-18.9c-2.1,0-3.2-1-3.2-3V94.6c0-1.9,1.1-2.9,3.2-2.9h18.9
		C335.9,91.8,337,92.7,337,94.6z"/>
	<g>
		<path class="st0" d="M387.2,157h-18.9c-2.1,0-3.2,1-3.2,3v89.3c0,2,1.1,3,3.2,3h18.9c1,0,1.8-0.3,2.4-0.8s0.9-1.2,0.9-2.2V160
			c0-0.9-0.3-1.7-0.9-2.2S388.2,157,387.2,157z"/>
		<path class="st0" d="M400.4,94c-2.4-3.7-5.7-6.7-9.9-8.9c-4.2-2.2-8.7-3.3-13.5-3.3s-9.3,1.1-13.5,3.3c-4.2,2.2-7.5,5.1-10,8.9
			c-2.5,3.7-3.7,7.8-3.7,12.1c0,4.3,1.2,8.4,3.7,12c2.5,3.7,5.8,6.6,10,8.8c0.5,0.3,1.1,0.5,1.6,0.7v7.4c0,1,1,1.6,3.1,1.6h18.4
			c1,0,1.8-0.1,2.3-0.4c0.6-0.3,0.8-0.7,0.8-1.2v-7.8c0.3-0.1,0.5-0.2,0.8-0.4c4.2-2.2,7.5-5.1,9.9-8.8c2.4-3.7,3.6-7.7,3.6-12
			C404,101.8,402.8,97.8,400.4,94z"/>
		<path class="st0" d="M388.7,138.6h-22.5c-0.6,0-1,0.5-1,1v3.8c0,0.6,0.5,1,1,1h22.5c0.6,0,1-0.5,1-1v-3.8
			C389.7,139.1,389.2,138.6,388.7,138.6z"/>
		<path class="st0" d="M386.6,146.5h-18.4c-0.6,0-1,0.5-1,1v2c0,0.6,0.5,1,1,1h18.4c0.6,0,1-0.5,1-1v-2
			C387.6,146.9,387.2,146.5,386.6,146.5z"/>
		<path class="st0" d="M390.1,79.5L390.1,79.5c-0.9-0.3-1.3-1.2-1-2l2.2-5.9c0.3-0.8,1.2-1.2,2.1-1l0,0c0.9,0.3,1.3,1.2,1,2
			l-2.2,5.9C391.9,79.3,391,79.8,390.1,79.5z"/>
		<path class="st0" d="M380.9,77.7L380.9,77.7c-0.9,0.1-1.7-0.4-1.9-1.2l-1.6-6.6c-0.2-0.8,0.4-1.5,1.2-1.6l0,0
			c0.9-0.1,1.7,0.4,1.9,1.2l1.6,6.6C382.3,76.8,381.8,77.6,380.9,77.7z"/>
		<path class="st0" d="M397.4,83.3L397.4,83.3c0.6,0.6,1.6,0.7,2.3,0.2l5.6-4.1c0.7-0.5,0.7-1.4,0.1-2l0,0c-0.6-0.6-1.6-0.7-2.3-0.2
			l-5.6,4.1C396.8,81.8,396.8,82.7,397.4,83.3z"/>
	</g>
	<path class="st0" d="M500.4,250.9c5.8,2.3,10.2,5.6,13.4,10c3.2,4.3,4.7,9.5,4.7,15.4c0,7.4-2.1,13.7-6.4,19
		c-4.3,5.3-10.4,9.4-18.3,12.2c-7.9,2.8-17.1,4.2-27.6,4.2c-7.9,0-16.1-0.6-24.4-1.8c-8.3-1.2-15.3-2.9-21.1-5.1
		c-0.8-0.4-1.4-0.9-1.8-1.5s-0.6-1.3-0.6-2c0-0.4,0.1-1,0.4-1.5l5.5-12.8c0.3-0.7,0.8-1.3,1.4-1.7c0.6-0.4,1.3-0.6,2.1-0.6
		c0.3,0,0.8,0.1,1.4,0.2c4.8,1.7,10.6,3,17.4,4.1c6.8,1,13.4,1.5,19.7,1.5c9.2,0,16.4-1.1,21.7-3.2c5.3-2.1,7.9-5.2,7.9-9.1
		c0-3.4-1.3-5.9-3.9-7.3c-2.6-1.5-6.6-2.2-12-2.2h-30.4c-6.7,0-12.7-1.1-17.9-3.2c-5.3-2.2-9.3-5.2-12.3-9.2
		c-2.9-4-4.4-8.7-4.4-14.1c0-4.5,1.1-8.5,3.2-12.2s5.1-6.4,8.8-8.3c-3-3.5-5.4-7.5-7-11.8c-1.6-4.4-2.5-9.1-2.5-14
		c0-8,1.9-15.1,5.6-21.4c3.7-6.3,8.9-11.2,15.6-14.8s14.2-5.4,22.5-5.4c2,0,4.6,0.3,7.8,0.8c3.2,0.5,6.2,1.3,9.3,2.2h31.4
		c1.5,0,2.6,0.4,3.5,1.1c0.9,0.7,1.3,1.8,1.3,3.2v11c0,1.2-0.4,2.2-1.3,3c-0.9,0.8-2,1.3-3.4,1.3h-10.5c4.2,6,6.3,12.4,6.3,19.1
		c0.1,7.8-1.8,14.7-5.7,20.9s-9.2,11.1-15.9,14.6c-6.8,3.5-14.4,5.3-22.9,5.3c-6.4,0-12.5-1.2-18.3-3.6c-1.6,0.7-2.8,1.6-3.7,3
		c-0.9,1.3-1.3,2.9-1.3,4.6c0,2,1.1,3.7,3.3,5c2.2,1.3,5.1,1.9,8.6,1.9H480C487.8,247.4,494.6,248.6,500.4,250.9z M451.1,178.7
		c-3.1,1.7-5.5,4.1-7.3,7c-1.8,3-2.7,6.2-2.7,9.8c0,3.5,0.9,6.7,2.6,9.6c1.8,2.9,4.2,5.2,7.2,6.9c3.1,1.7,6.5,2.5,10.2,2.5
		c3.9,0,7.4-0.8,10.6-2.5c3.2-1.6,5.6-3.9,7.5-6.8c1.8-2.9,2.7-6.1,2.7-9.6c0-3.7-0.9-7-2.7-9.9c-1.8-3-4.3-5.3-7.5-7
		s-6.6-2.6-10.5-2.6C457.6,176.1,454.2,177,451.1,178.7z"/>
	<path class="st0" d="M611.2,159.4c6.1,3.5,10.9,8.5,14.1,15c3.3,6.5,4.9,14.1,4.9,22.9V249c0,1-0.3,1.7-0.9,2.3
		c-0.6,0.6-1.4,0.9-2.5,0.9h-18.7c-1,0-1.8-0.3-2.5-0.9c-0.6-0.6-0.9-1.4-0.9-2.3v-51.9c0-3.7-1-7.1-3-10.2c-2-3.1-4.7-5.5-8.1-7.3
		c-3.4-1.8-7.1-2.7-11-2.7c-4.2,0-8.1,0.9-11.7,2.8c-3.6,1.9-6.4,4.5-8.5,7.8s-3.2,7.1-3.2,11.2v50.4c0,2-1.1,3-3.3,3H537
		c-2.1,0-3.2-1-3.2-3V94.6c0-1.9,1.1-2.9,3.2-2.9h18.9c2.2,0,3.3,1,3.3,2.9V167c3.7-4,8.2-7.2,13.5-9.4c5.3-2.3,10.8-3.4,16.6-3.4
		C597.8,154.2,605,155.9,611.2,159.4z"/>
	<path class="st0" d="M645.1,160.1c0-2,1.1-3,3.2-3h11.4V130c0-1.8,0.9-2.9,2.7-3.5l19-7c0.6-0.1,1.1-0.2,1.3-0.2
		c0.8,0,1.4,0.3,1.8,0.8c0.4,0.5,0.6,1.2,0.6,2.1v35h24.2c2.1,0,3.2,1,3.2,3V177c0,2-1.1,3-3.2,3h-24.2v69.5c0,2-1,3-3,3h-19.2
		c-1,0-1.8-0.3-2.3-0.8s-0.8-1.2-0.8-2.2V180h-11.6c-2.1,0-3.2-1-3.2-3L645.1,160.1L645.1,160.1z"/>
</g>
</svg>
