<?xml version="1.0" encoding="utf-8"?>
<!-- Generator: Adobe Illustrator 25.2.0, SVG Export Plug-In . SVG Version: 6.00 Build 0)  -->
<svg version="1.1" id="Layer_1" xmlns="http://www.w3.org/2000/svg" xmlns:xlink="http://www.w3.org/1999/xlink" x="0px" y="0px"
	 viewBox="0 0 300.9 221.6" style="enable-background:new 0 0 300.9 221.6;" xml:space="preserve">
<style type="text/css">
	.st0{fill:#212129;stroke:#FFFFFF;stroke-width:5;stroke-miterlimit:10;}
	.st1{fill:#212129;stroke:#FFFFFF;stroke-width:7;stroke-miterlimit:10;}
	.st2{fill:none;stroke:#FFFFFF;stroke-width:5;stroke-miterlimit:10;}
	.st3{fill:#FFFFFF;stroke:#FFFFFF;stroke-width:5;stroke-miterlimit:10;}
	.st4{fill:#212129;stroke:#FFFFFF;stroke-width:6;stroke-miterlimit:10;}
	.st5{fill:#212129;stroke:#FFFFFF;stroke-width:3;stroke-miterlimit:10;}
	.st6{fill:#212129;stroke:#FFFFFF;stroke-width:11;stroke-miterlimit:10;}
	.st7{fill:none;stroke:#FFFFFF;stroke-width:7;stroke-miterlimit:10;}
</style>
<path class="st0" d="M-59.6,252.2V236c0-15.3-12.9-27.8-28.6-27.8h-5.3c-11.2,0-10-11.1-10-11.1c-10-11.1-18.5,0-18.5,0
	s1.2,11.1-10,11.1h-4.5c-15.7,0-28.6,12.5-28.6,27.8v16.2H-59.6z"/>
<ellipse class="st0" cx="-114.3" cy="164.9" rx="35" ry="32.9"/>
<path class="st0" d="M-213.5,252.2V236c0-15.3-12.9-27.8-28.6-27.8h-5.3c-11.2,0-10-11.1-10-11.1c-10-11.1-18.5,0-18.5,0
	s1.2,11.1-10,11.1h-4.5c-15.7,0-28.6,12.5-28.6,27.8v16.2H-213.5z"/>
<ellipse class="st0" cx="-268.2" cy="165" rx="35" ry="32.9"/>
<path class="st0" d="M-123.8,252.2v-21.8c0-20.6-16.9-37.5-37.5-37.5h-7c-14.7,0-13-14.9-13-14.9c-13-14.9-24.2,0-24.2,0
	s1.6,14.9-13,14.9h-5.9c-20.6,0-37.5,16.9-37.5,37.5v21.8H-123.8z"/>
<circle class="st1" cx="-194.9" cy="122" r="57"/>
<circle class="st0" cx="-195" cy="121.6" r="32.9"/>
<circle class="st0" cx="-194.9" cy="121.6" r="11.7"/>
<line class="st2" x1="-106.3" y1="68.2" x2="-194.9" y2="121.6"/>
<polygon class="st0" points="-135.9,84.9 -132.5,60.1 -103.1,41.5 -108,67.5 "/>
<polygon class="st0" points="-81.9,81.7 -105.3,72.5 -135.9,89 -110.8,97.4 "/>
<g>
	<path class="st0" d="M118.9,137.3l-52.4-24.4c-1.5-0.7-3.2,0.1-3.9,1.7l-26.1,67.7c-0.6,1.7,0.1,3.6,1.6,4.3L90.5,211
		c1.5,0.7,3.2-0.1,3.9-1.7l26.1-67.7C121.1,139.9,120.4,138,118.9,137.3z"/>
	<path class="st3" d="M111.2,127.3l-33-15.4c-0.9-0.4-2,0-2.3,1l-3,7.8c-0.4,1,0,2.1,0.9,2.6l33,15.4c0.9,0.4,2,0,2.3-1l3-7.8
		C112.6,128.9,112.1,127.8,111.2,127.3z"/>
	<ellipse transform="matrix(0.8928 -0.4505 0.4505 0.8928 -43.4073 55.4227)" class="st4" cx="94.7" cy="118.9" rx="8.4" ry="9.2"/>
	<line class="st0" x1="76.4" y1="137.2" x2="108.9" y2="152.4"/>
	<line class="st5" x1="73.5" y1="144.2" x2="88.9" y2="151.4"/>
	<polygon class="st0" points="68.9,143.5 59.7,139.2 63.5,129.4 72.7,133.7 	"/>
	<line class="st5" x1="69.5" y1="155.1" x2="80" y2="160"/>
	<line class="st5" x1="66.6" y1="162.1" x2="99.3" y2="177.3"/>
	<polygon class="st0" points="62,161.3 52.9,157 56.6,147.3 65.8,151.5 	"/>
	<line class="st5" x1="62.6" y1="172.9" x2="90.5" y2="185.8"/>
	<line class="st5" x1="59.7" y1="179.9" x2="89.7" y2="193.8"/>
	<polygon class="st0" points="55.2,179.1 46,174.9 49.7,165.1 58.9,169.4 	"/>
</g>
<polygon class="st6" points="91.3,60.1 264.6,10.4 181.8,189.9 165.3,102.6 "/>
<path class="st7" d="M98.8,111.2c0,0,0.4-10.4,21.7,2.7s43,3.2,44.8-11.4l35.1-33.4"/>
</svg>
