<?xml version="1.0" encoding="utf-8"?>
<!-- Generator: Adobe Illustrator 25.2.0, SVG Export Plug-In . SVG Version: 6.00 Build 0)  -->
<svg version="1.1" id="Layer_1" xmlns="http://www.w3.org/2000/svg" xmlns:xlink="http://www.w3.org/1999/xlink" x="0px" y="0px"
	 viewBox="0 0 300.9 221.6" style="enable-background:new 0 0 300.9 221.6;" xml:space="preserve">
<style type="text/css">
	.st0{fill:#212129;stroke:#FFFFFF;stroke-width:5;stroke-miterlimit:10;}
	.st1{fill:#212129;stroke:#FFFFFF;stroke-width:7;stroke-miterlimit:10;}
	.st2{fill:none;stroke:#FFFFFF;stroke-width:5;stroke-miterlimit:10;}
	.st3{fill:#FFFFFF;stroke:#FFFFFF;stroke-width:5;stroke-miterlimit:10;}
	.st4{fill:#212129;stroke:#FFFFFF;stroke-width:11;stroke-miterlimit:10;}
</style>
<path class="st0" d="M-59.6,252.2V236c0-15.3-12.9-27.8-28.6-27.8h-5.3c-11.2,0-10-11.1-10-11.1c-10-11.1-18.5,0-18.5,0
	s1.2,11.1-10,11.1h-4.5c-15.7,0-28.6,12.5-28.6,27.8v16.2H-59.6z"/>
<ellipse class="st0" cx="-114.3" cy="164.9" rx="35" ry="32.9"/>
<path class="st0" d="M-213.5,252.2V236c0-15.3-12.9-27.8-28.6-27.8h-5.3c-11.2,0-10-11.1-10-11.1c-10-11.1-18.5,0-18.5,0
	s1.2,11.1-10,11.1h-4.5c-15.7,0-28.6,12.5-28.6,27.8v16.2H-213.5z"/>
<ellipse class="st0" cx="-268.2" cy="165" rx="35" ry="32.9"/>
<path class="st0" d="M-123.8,252.2v-21.8c0-20.6-16.9-37.5-37.5-37.5h-7c-14.7,0-13-14.9-13-14.9c-13-14.9-24.2,0-24.2,0
	s1.6,14.9-13,14.9h-5.9c-20.6,0-37.5,16.9-37.5,37.5v21.8H-123.8z"/>
<circle class="st1" cx="-194.9" cy="122" r="57"/>
<circle class="st0" cx="-195" cy="121.6" r="32.9"/>
<circle class="st0" cx="-194.9" cy="121.6" r="11.7"/>
<line class="st2" x1="-106.3" y1="68.2" x2="-194.9" y2="121.6"/>
<polygon class="st0" points="-135.9,84.9 -132.5,60.1 -103.1,41.5 -108,67.5 "/>
<polygon class="st0" points="-81.9,81.7 -105.3,72.5 -135.9,89 -110.8,97.4 "/>
<path class="st0" d="M218.9,43.4H98.7c-7.7,0-14,6.3-14,14v139.1c0,7.7,6.3,14,14,14h120.2c7.7,0,14-6.3,14-14V57.4
	C232.9,49.7,226.6,43.4,218.9,43.4z"/>
<path class="st3" d="M196,31.2h-74.8c-5,0-9,4-9,9V48c0,5,4,9,9,9H196c5,0,9-4,9-9v-7.8C205.1,35.3,201,31.2,196,31.2z"/>
<ellipse class="st4" cx="157.9" cy="29.7" rx="20.7" ry="18.5"/>
<line class="st4" x1="133.5" y1="81.4" x2="216.7" y2="81.4"/>
<line class="st4" x1="133" y1="97.4" x2="172.5" y2="97.4"/>
<rect x="99" y="77.9" class="st0" width="23.5" height="22.1"/>
<line class="st4" x1="133.5" y1="121.8" x2="160.4" y2="121.8"/>
<line class="st4" x1="133" y1="137.8" x2="216.7" y2="137.8"/>
<rect x="99" y="118.3" class="st0" width="23.5" height="22.1"/>
<line class="st4" x1="133.5" y1="162.2" x2="204.8" y2="162.2"/>
<line class="st4" x1="133" y1="178.2" x2="209.7" y2="178.2"/>
<rect x="99" y="158.7" class="st0" width="23.5" height="22.1"/>
</svg>
