<?xml version="1.0" encoding="utf-8"?>
<!-- Generator: Adobe Illustrator 25.2.0, SVG Export Plug-In . SVG Version: 6.00 Build 0)  -->
<svg version="1.1" id="Layer_1" xmlns="http://www.w3.org/2000/svg" xmlns:xlink="http://www.w3.org/1999/xlink" x="0px" y="0px"
	 viewBox="0 0 300.9 221.6" style="enable-background:new 0 0 300.9 221.6;" xml:space="preserve">
<style type="text/css">
	.st0{fill:#212129;stroke:#FFFFFF;stroke-width:5;stroke-miterlimit:10;}
	.st1{fill:#212129;stroke:#FFFFFF;stroke-width:7;stroke-miterlimit:10;}
	.st2{fill:#FFFFFF;stroke:#FFFFFF;stroke-width:5;stroke-miterlimit:10;}
</style>
<path class="st0" d="M285.3,234.2V218c0-15.3-12.9-27.8-28.6-27.8h-5.3c-11.2,0-10-11.1-10-11.1c-10-11.1-18.5,0-18.5,0
	s1.2,11.1-10,11.1h-4.5c-15.7,0-28.6,12.5-28.6,27.8v16.2H285.3z"/>
<ellipse class="st0" cx="230.6" cy="146.9" rx="35" ry="32.9"/>
<path class="st0" d="M131.4,234.2v-16.2c0-15.3-12.9-27.8-28.6-27.8h-5.3c-11.2,0-10-11.1-10-11.1c-10-11.1-18.5,0-18.5,0
	s1.2,11.1-10,11.1h-4.5c-15.7,0-28.6,12.5-28.6,27.8v16.2H131.4z"/>
<ellipse class="st0" cx="76.7" cy="147" rx="35" ry="32.9"/>
<path class="st0" d="M221.1,234.2v-21.8c0-20.6-16.9-37.5-37.5-37.5h-7c-14.7,0-13-14.9-13-14.9c-13-14.9-24.2,0-24.2,0
	s1.6,14.9-13,14.9h-5.9c-20.6,0-37.5,16.9-37.5,37.5v21.8H221.1z"/>
<circle class="st1" cx="150" cy="104" r="57"/>
<circle class="st0" cx="149.9" cy="103.6" r="32.9"/>
<circle class="st0" cx="150" cy="103.6" r="11.7"/>
<line class="st2" x1="238.6" y1="50.2" x2="150" y2="103.6"/>
<polygon class="st0" points="209,66.9 212.4,42.1 241.8,23.5 236.9,49.5 "/>
<polygon class="st0" points="263,63.7 239.6,54.5 209,71 234.1,79.4 "/>
<g id="DFGlp1.tif">
	
		<image style="overflow:visible;" width="202" height="154" id="Layer_0" xlink:href="67693233F3EB8DF5.png"  transform="matrix(0.5 0 0 0.5 -320.4249 65.4985)">
	</image>
</g>
</svg>
